<?xml version="1.0" encoding="utf-8"?>
<!-- Generator: Adobe Illustrator 23.0.1, SVG Export Plug-In . SVG Version: 6.00 Build 0)  -->
<svg version="1.1" id="Layer_1" xmlns="http://www.w3.org/2000/svg" xmlns:xlink="http://www.w3.org/1999/xlink" x="0px" y="0px"
	 viewBox="0 0 86.81 67.66" style="enable-background:new 0 0 86.81 67.66;" xml:space="preserve">
<style type="text/css">
	.st0{fill-rule:evenodd;clip-rule:evenodd;fill:#8DC63F;}
	.st1{fill:#8DC63F;}
</style>
<g>
	<g>
		<g>
			<path class="st0" d="M54.79,10.16c-0.41,0-0.61,0-1.02,0.2c-0.41,0-1.02,0-1.43,0.2l-1.43,0.2c-0.2,0-0.2,0-0.41,0.2
				c-1.02,0.6,0.41,0-0.61,0.4c-0.2,0-0.2,0.2-0.41,0.2c-0.41,0-0.61,0-1.02-0.2c-0.41,0-1.02-0.4-1.23-0.6l-0.2-0.2
				c-0.2,0-0.82-0.2-1.02-0.2c-0.61,0-1.23,0-1.84,0.2c-0.2,0-0.41,0-0.61,0.2c-0.2,0-0.2,0.2-0.2,0.2c-0.41,0.4-0.61,0.2-1.02,0.8
				c-0.41,0.6-0.2,0.4-0.61,0.6c-0.41,0.8-0.2,0.6-0.41,1.61c0,0.4,0,0.8-0.2,1.01c0,0.2,0,0.2-0.2,0.4c0,0.2-0.2,0.2-0.41,0.2
				c-0.2,0.2-0.2,0.2-0.41,0.4c-0.82,0.6-0.2,0-1.02,0.6c-0.2,0.2-0.41,0.4-0.61,0.6c-0.2,0.2-0.41,0.2-0.61,0.2
				c-0.41,0.2-0.61,0.4-1.02,0.6c0.41-0.4,0.2-0.4,0-0.4c-1.23,0.8-0.2,0.4-1.43,0.6c-0.2,0.2-0.2,0.4-0.61,0.6
				c-0.2,0-0.2,0.2-0.41,0.2l-0.2,0.2c-0.2,0.2-0.61,0.4-0.82,0.6c-0.2,0-0.2,0.2-0.41,0.2c-0.82,0.8,0.41-0.4-0.61,0.6
				c-0.2,0.2-0.2,0.2-0.41,0.4c-0.2,0.2-0.2,0.2-0.41,0.2c-0.2,0.2-0.41,0.4-0.61,0.6c-0.2,0-0.2,0.2-0.41,0.2
				c-0.2,0.2-0.41,0.4-0.61,0.6c-0.2,0-0.41,0.2-0.61,0.2s-0.2,0.2-0.41,0.2c0,0.6-0.2,0.6-0.41,0.6c-0.41,0.4,0,0-0.61,0.6
				c-0.61,0.2-0.41,0.2-1.02,0.4c-0.2,0-0.41,0-0.61,0.2c-0.2,0-0.41,0.2-0.61,0.2c-0.41,0.2-0.41,0.2-1.02,0.2
				c-0.2,0.2-0.41,0.2-0.82,0.4c-0.82,0.2-0.2,0-1.23,0.4c-0.2,0-0.2,0-0.41,0.2c-0.61,0.2-0.2,0-1.02,0.4c0,0.2-0.2,0.6-0.41,0.6
				c-0.2,0-0.2,0-0.41,0.2l-0.2,0.2c-0.2,0-0.2,0.2-0.41,0.2c-0.2,0.2-0.2,0.4-0.41,0.4c-0.41,1.21,0.2-0.2-0.41,0.8
				c-0.2,0.2,0,0.6-0.41,0.8c-0.2,0.2-1.02,0.4-1.43,0.4c-2.04-0.4-0.82-0.2-3.27-0.2c-1.02,1.01,0.2,0-0.82,0.6s0.41,0-0.61,0.4
				c-0.2,0.2-0.41,0.4-0.61,0.4c-0.2,0-0.2-0.2-0.2-0.4c-0.2-0.2-0.2-1.01-0.61-1.21c0-0.2-0.2-0.2-0.41-0.2
				c-0.41,0-0.82,0-1.23-0.2c-0.2,0-0.41,0-0.61,0.2c-0.2,0.4,0.41,0.6,0.61,0.6c0,0.2,0,0.4,0.2,0.6c0,0.2,0.41,0.2,0.41,0.2
				c0.2,1.21,0,1.41-0.41,2.01c0,0.4-0.2,1.01-0.2,1.41c0,0.4,0.2,0.4,0.61,0.6c0.82,0,1.84,0,2.66,0.2c0,0.2,0,1.41-0.2,1.81
				c-0.2,0.4-0.41,0.4-0.61,0.8c-1.02,1.41-0.2,0.4-0.82,1.01c0,0.2,0,0.2-0.2,0.4c0,0.2-0.2,0.2-0.2,0.2
				c-0.2,0.4-0.2,0.6-0.41,1.01c-0.2,1.21-0.2,0.8-0.41,1.41c-0.2,2.01,0,2.81,0.2,3.62c0.2,0.8,0.41,0.8,0.82,1.01
				c0.41,0.2,0.61,0.4,0.82,0.6c0.2,0.2,0.61,0.2,0.82,0.2c0.2,0,0.2,0.2,0.41,0.2s0.61,0,0.82,0.2c0.2,0,0.41,0.2,0.61,0.2
				c0.41,0,0.82,0,1.43,0.2c0.2,0,0.2,0,0.41,0.2c0.41,0.2,0.82,0.2,1.43,0.2l0.41,0.2c0,0,0.61,0,0.82,0.2
				c0.41,0.2,0.82,0.4,1.23,0.6c0.2,0,0.2,0.2,0.41,0.2s0.2,0,0.41,0.2c-0.2-0.2,0,0,0.2,0c0.41,0.4,0.2,0.2,0.61,0.6
				c0.2,0.2,0.82,0.2,1.02,0.2c0.2,0,0.41,0.2,0.61,0.2c0.2,0.2,0.61,0.2,0.82,0.2c1.02,0.4,0.2,0.2,2.45,0.2
				c0.2,0.4,0.41,0.4,0.61,0.4c3.88,0,3.06,0.2,5.11-0.2c1.43,0,2.66,0,4.09,0.2c2.25,0.2,0.61,0.2,1.84,0.4c0.2,0,0.61,0,0.82,0.2
				c0.2,0,0.2,0.2,0.41,0.2c0.2,0,0.2,0,0.41,0.2c1.02,0.6-0.41,0,0.61,0.4c0.61,0.6-0.2-0.2,0.61,0.4c0.2,0,0.2,0.2,0.2,0.2
				c0.2,0,0.2,0,0.41,0.2c0.61,0.2,0.61,0.2,1.23,0.2c0.2,0,0.41,0,0.61,0.2c1.02,0.2,1.63,0.2,2.86,0.2
				c-0.2-0.2-1.02-1.01-1.43-1.21c-0.2,0-0.41,0-0.61-0.2c-0.41-0.2-0.41-0.4-1.02-0.6c-0.2,0-0.2,0-0.41-0.2l-0.2-0.2
				c-0.2,0-0.41,0-0.61-0.2c-0.2,0-0.2,0-0.41-0.2c0,0-0.41-0.2-0.2-0.2c0-0.2,0.2-0.2,0.41-0.2c0.61,0,1.02,0,1.63-0.2
				c1.02-0.4-0.61,0.2,1.43-0.2c0.2,0,0.61-0.2,0.82-0.2c0.2,0,0.2-0.2,0.41-0.2l0.82-0.2c0.2,0,0.41-0.2,0.61-0.2
				c0.82,0,1.63,0,2.45-0.2c1.02,0,1.84,0,2.86-0.2c0.2,0,0.41,0,0.61-0.2c0,0,0.41-0.6,0.41-0.8c0-0.2-0.61-0.4-0.82-0.4
				c-0.82,0-5.92,0-7.97,0.2c-0.61,0-0.2,0.2-0.82,0.4c-0.2,0-0.61,0-0.82,0.2c-0.2,0-0.2,0-0.41,0.2c-0.2,0-0.41,0-0.61,0.2
				c0-0.4,0.2-0.8,0.2-1.21c0-0.2,0.2-0.2,0.2-0.4c0-0.2,0-0.4,0.2-0.6c0-0.2,0.2-0.8,0.2-0.8c0-0.6,0-1.01-0.2-1.61
				c0-0.2-0.2-0.2-0.41-0.2c-0.61-0.6,0.2-0.2-0.82-1.01c-1.84-1.21,0.82,0.6-0.82-0.4c-0.61-0.4-0.61-0.4-1.02-0.8
				c0.2-0.2,0.41-0.4,0.82-0.6c1.02-0.4-0.2,0.2,0.82-0.4c1.02-0.6-0.41,0.4,0.82-0.4c0.2-0.2,0.41-0.6,0.61-0.6
				c0.2,0,0.2,0,0.41-0.2c0-0.2,0-0.2,0.2-0.4c0-0.2,0.2-0.4,0.2-0.6c0-0.2,0-0.4,0.2-0.6c0.41-1.21,0,0.4,0.41-0.8
				c0.2-0.8,0-0.6,0.2-1.21c0-0.2,0.2-0.6,0.2-0.8s0-0.2,0.2-0.4l0.2-0.2c0-0.2,0.2-0.8,0.41-0.8c0.2,0,0.82,0.4,0.82,0.4
				c0,0.2,0.2,0.2,0.2,0.4c0.2,0.2,0.61,0.6,0.61,0.6c0,0.2,0,0.2,0.2,0.4c0.2,0.4,0.41,0.6,0.61,1.01c0,0.4,0.2,0.8,0.2,1.01
				c0,0.2,0,0.2,0.2,0.4c0,0.2,0.2,0.2,0.2,0.4l0.2,1.01c0,0.2,0,0.4,0.2,0.6c0,0.2,0.2,0.6,0.2,0.8c0.2,0.2,0.41,0.4,0.61,0.8
				c0.2,0.6,0,0.4,0.61,0.6c2.04,2.01-0.2-0.2,1.02,1.01c0.2,0.2,0.2,0.2,0.41,0.4c0.41,0.2,1.02,0.4,1.43,0.6
				c0.2,0,0.2,0.2,0.41,0.2c1.84,0.2,0.61,0.2,3.68,0.2c0.2,0,0.61,0,0.82,0.2c1.23,0.2,2.25,0.2,3.68,0.2
				c2.04,0.4-0.41-0.2,1.23,0.2c0.2,0,0.41,0,0.61,0.2c1.63,0.4,0,0.2,1.84,0.4c0.82,0.2,0,0,1.02,0.2c0.2,0,0.41,0.2,0.61,0.2
				c0.61,0,2.45,0.2,3.06,0.2l0.82,0.2c0.2,0,0.2,0,0.41,0.2l1.02,0.2c0.41,0,0.61,0,1.02-0.2c0.2,0,0.2-0.2,0.2-0.4
				c0-0.2,0-0.2-0.2-0.4s-0.61-0.4-0.82-0.4c-0.2,0-0.41,0-0.61-0.2c-0.2,0-0.61-0.2-0.82-0.2s-0.2-0.2-0.41-0.2l-0.61-0.2
				c-0.2,0-0.61,0-0.82-0.2c-0.41,0-0.61-0.2-1.02-0.4c-0.2,0-0.41-0.2-0.61-0.2c-0.61,0-1.43,0-2.25-0.2
				c1.43-1.41-0.41,0.4,0.61-0.8c0.61-0.8,0.2-0.2,1.02-0.8c0.61-0.4,0-0.2,0.61-0.4l0.2-0.2c0.41-0.2,1.02-0.2,1.02-0.2
				c0.2,0,0.2-0.2,0.41-0.2c0.41-0.2,1.43-0.2,1.84-0.2c0.2,0,0.41,0,0.61-0.2c0.2,0,0.41,0,0.61-0.2c0.2-0.2-0.41-0.6-0.41-0.6
				c-0.2,0-1.84,0.2-2.25,0.2c-0.2,0-0.41,0.2-0.61,0.2c-0.41,0.2-0.61,0.2-1.02,0.2c-0.2,0-0.2,0-0.41,0.2c-0.2,0-0.41,0-0.61,0.2
				c-0.2,0-0.2,0.2-0.41,0.2c-0.2,0-0.41,0-0.61,0.2c-0.41,0.2-0.41,0.2-1.02,0.2c-0.2,0-0.2,0.2-0.41,0.2
				c-0.2,0.2-0.61,0.2-1.02,0.2c-0.2,0-0.41,0.2-0.61,0.2c-0.61,0.6-0.41,0.6-2.25,0.2c-0.2,0-0.2-0.2-0.2-0.4
				c-0.2-0.2-0.2-0.2-0.41-0.2c0-0.2-0.2-0.2-0.2-0.4c-1.23-1.01-0.41-0.2-1.23-0.6c-0.2,0-0.2-0.2-0.41-0.2
				c-0.61,0.4-1.23,0.4-1.43,0.4c-0.2,0-0.61-0.2-0.82-0.2c-0.41-0.2-0.61-0.4-1.02-0.4c-0.2,0-0.61,0-0.82-0.2
				c-0.2-0.2-0.61-0.2-0.82-0.6c-0.61-1.01-0.2-0.6-1.02-1.01c-0.2-1.01-0.2-1.41,0-2.41c0-0.2,0.2-0.4,0.2-0.6
				c0.41-0.4,0.41-0.6,0.41-0.8c0-0.2,0-0.6,0.2-0.8c0-0.2,0-0.4,0.2-0.6c0.2-1.21,0-0.6,0.2-1.41c0-0.2,0-0.6,0.2-0.8
				c0-0.2,0.2-0.2,0.2-0.2c0.41-1.01-0.2-0.4,0.41-1.01c0.2-0.8,0,0,0.2-1.21c0-0.2,0-0.4,0.2-0.6c0-0.4,0-0.6,0.2-1.01
				c0,0,0,0,0-0.2s0-0.4,0.2-0.6c0-0.2,0-0.4,0.2-0.6c0-0.2,0-0.2,0.2-0.4c0.41-1.21,0,0,0.2-1.01c0-0.4,0-0.6,0.2-1.01
				c0-0.2,0-0.2,0.2-0.4c0.2-0.6,0.2-0.6,0.2-1.21c0-0.2,0-0.4,0.2-0.6c0-0.2,0-0.2,0.2-0.4c0-0.2,0-0.4,0.2-0.6
				c0-0.2,0-0.4,0.2-0.6c0-0.4,0-0.8,0.2-1.41c-0.41,0.4-0.41,0.2-0.41,0s0-0.6,0.2-0.8c0-0.2,0-0.4,0.2-0.6c0-0.6,0-1.21-0.2-1.81
				c0-0.4-0.2-0.6-0.2-1.01c0-0.2,0-0.4-0.2-0.6c-0.2-0.6,0-0.2-0.2-1.01c0-0.4,0-0.8-0.2-1.41c0-0.2-0.2-0.2-0.2-0.4
				c0-0.2,0-0.6-0.2-0.8C56.22,10.36,55.2,10.16,54.79,10.16L54.79,10.16L54.79,10.16L54.79,10.16z"/>
			<path class="st1" d="M54.79,10.16c-0.41,0-0.61,0-1.02,0.2c-0.41,0-1.02,0-1.43,0.2l-1.43,0.2c-0.2,0-0.2,0-0.41,0.2
				c-1.02,0.6,0.41,0-0.61,0.4c-0.2,0-0.2,0.2-0.41,0.2c-0.41,0-0.61,0-1.02-0.2c-0.41,0-1.02-0.4-1.23-0.6l-0.2-0.2
				c-0.2,0-0.82-0.2-1.02-0.2c-0.61,0-1.23,0-1.84,0.2c-0.2,0-0.41,0-0.61,0.2c-0.2,0-0.2,0.2-0.2,0.2c-0.41,0.4-0.61,0.2-1.02,0.8
				c-0.41,0.6-0.2,0.4-0.61,0.6c-0.41,0.8-0.2,0.6-0.41,1.61c0,0.4,0,0.8-0.2,1.01c0,0.2,0,0.2-0.2,0.4c0,0.2-0.2,0.2-0.41,0.2
				c-0.2,0.2-0.2,0.2-0.41,0.4c-0.82,0.6-0.2,0-1.02,0.6c-0.2,0.2-0.41,0.4-0.61,0.6c-0.2,0.2-0.41,0.2-0.61,0.2
				c-0.41,0.2-0.61,0.4-1.02,0.6c0.41-0.4,0.2-0.4,0-0.4c-1.23,0.8-0.2,0.4-1.43,0.6c-0.2,0.2-0.2,0.4-0.61,0.6
				c-0.2,0-0.2,0.2-0.41,0.2l-0.2,0.2c-0.2,0.2-0.61,0.4-0.82,0.6c-0.2,0-0.2,0.2-0.41,0.2c-0.82,0.8,0.41-0.4-0.61,0.6
				c-0.2,0.2-0.2,0.2-0.41,0.4c-0.2,0.2-0.2,0.2-0.41,0.2c-0.2,0.2-0.41,0.4-0.61,0.6c-0.2,0-0.2,0.2-0.41,0.2
				c-0.2,0.2-0.41,0.4-0.61,0.6c-0.2,0-0.41,0.2-0.61,0.2s-0.2,0.2-0.41,0.2c0,0.6-0.2,0.6-0.41,0.6c-0.41,0.4,0,0-0.61,0.6
				c-0.61,0.2-0.41,0.2-1.02,0.4c-0.2,0-0.41,0-0.61,0.2c-0.2,0-0.41,0.2-0.61,0.2c-0.41,0.2-0.41,0.2-1.02,0.2
				c-0.2,0.2-0.41,0.2-0.82,0.4c-0.82,0.2-0.2,0-1.23,0.4c-0.2,0-0.2,0-0.41,0.2c-0.61,0.2-0.2,0-1.02,0.4c0,0.2-0.2,0.6-0.41,0.6
				c-0.2,0-0.2,0-0.41,0.2l-0.2,0.2c-0.2,0-0.2,0.2-0.41,0.2c-0.2,0.2-0.2,0.4-0.41,0.4c-0.41,1.21,0.2-0.2-0.41,0.8
				c-0.2,0.2,0,0.6-0.41,0.8c-0.2,0.2-1.02,0.4-1.43,0.4c-2.04-0.4-0.82-0.2-3.27-0.2c-1.02,1.01,0.2,0-0.82,0.6s0.41,0-0.61,0.4
				c-0.2,0.2-0.41,0.4-0.61,0.4c-0.2,0-0.2-0.2-0.2-0.4c-0.2-0.2-0.2-1.01-0.61-1.21c0-0.2-0.2-0.2-0.41-0.2
				c-0.41,0-0.82,0-1.23-0.2c-0.2,0-0.41,0-0.61,0.2c-0.2,0.4,0.41,0.6,0.61,0.6c0,0.2,0,0.4,0.2,0.6c0,0.2,0.41,0.2,0.41,0.2
				c0.2,1.21,0,1.41-0.41,2.01c0,0.4-0.2,1.01-0.2,1.41c0,0.4,0.2,0.4,0.61,0.6c0.82,0,1.84,0,2.66,0.2c0,0.2,0,1.41-0.2,1.81
				c-0.2,0.4-0.41,0.4-0.61,0.8c-1.02,1.41-0.2,0.4-0.82,1.01c0,0.2,0,0.2-0.2,0.4c0,0.2-0.2,0.2-0.2,0.2
				c-0.2,0.4-0.2,0.6-0.41,1.01c-0.2,1.21-0.2,0.8-0.41,1.41c-0.2,2.01,0,2.81,0.2,3.62c0.2,0.8,0.41,0.8,0.82,1.01
				c0.41,0.2,0.61,0.4,0.82,0.6c0.2,0.2,0.61,0.2,0.82,0.2c0.2,0,0.2,0.2,0.41,0.2s0.61,0,0.82,0.2c0.2,0,0.41,0.2,0.61,0.2
				c0.41,0,0.82,0,1.43,0.2c0.2,0,0.2,0,0.41,0.2c0.41,0.2,0.82,0.2,1.43,0.2l0.41,0.2c0,0,0.61,0,0.82,0.2
				c0.41,0.2,0.82,0.4,1.23,0.6c0.2,0,0.2,0.2,0.41,0.2s0.2,0,0.41,0.2c-0.2-0.2,0,0,0.2,0c0.41,0.4,0.2,0.2,0.61,0.6
				c0.2,0.2,0.82,0.2,1.02,0.2c0.2,0,0.41,0.2,0.61,0.2c0.2,0.2,0.61,0.2,0.82,0.2c1.02,0.4,0.2,0.2,2.45,0.2
				c0.2,0.4,0.41,0.4,0.61,0.4c3.88,0,3.06,0.2,5.11-0.2c1.43,0,2.66,0,4.09,0.2c2.25,0.2,0.61,0.2,1.84,0.4c0.2,0,0.61,0,0.82,0.2
				c0.2,0,0.2,0.2,0.41,0.2c0.2,0,0.2,0,0.41,0.2c1.02,0.6-0.41,0,0.61,0.4c0.61,0.6-0.2-0.2,0.61,0.4c0.2,0,0.2,0.2,0.2,0.2
				c0.2,0,0.2,0,0.41,0.2c0.61,0.2,0.61,0.2,1.23,0.2c0.2,0,0.41,0,0.61,0.2c1.02,0.2,1.63,0.2,2.86,0.2
				c-0.2-0.2-1.02-1.01-1.43-1.21c-0.2,0-0.41,0-0.61-0.2c-0.41-0.2-0.41-0.4-1.02-0.6c-0.2,0-0.2,0-0.41-0.2l-0.2-0.2
				c-0.2,0-0.41,0-0.61-0.2c-0.2,0-0.2,0-0.41-0.2c0,0-0.41-0.2-0.2-0.2c0-0.2,0.2-0.2,0.41-0.2c0.61,0,1.02,0,1.63-0.2
				c1.02-0.4-0.61,0.2,1.43-0.2c0.2,0,0.61-0.2,0.82-0.2c0.2,0,0.2-0.2,0.41-0.2l0.82-0.2c0.2,0,0.41-0.2,0.61-0.2
				c0.82,0,1.63,0,2.45-0.2c1.02,0,1.84,0,2.86-0.2c0.2,0,0.41,0,0.61-0.2c0,0,0.41-0.6,0.41-0.8c0-0.2-0.61-0.4-0.82-0.4
				c-0.82,0-5.92,0-7.97,0.2c-0.61,0-0.2,0.2-0.82,0.4c-0.2,0-0.61,0-0.82,0.2c-0.2,0-0.2,0-0.41,0.2c-0.2,0-0.41,0-0.61,0.2
				c0-0.4,0.2-0.8,0.2-1.21c0-0.2,0.2-0.2,0.2-0.4c0-0.2,0-0.4,0.2-0.6c0-0.2,0.2-0.8,0.2-0.8c0-0.6,0-1.01-0.2-1.61
				c0-0.2-0.2-0.2-0.41-0.2c-0.61-0.6,0.2-0.2-0.82-1.01c-1.84-1.21,0.82,0.6-0.82-0.4c-0.61-0.4-0.61-0.4-1.02-0.8
				c0.2-0.2,0.41-0.4,0.82-0.6c1.02-0.4-0.2,0.2,0.82-0.4c1.02-0.6-0.41,0.4,0.82-0.4c0.2-0.2,0.41-0.6,0.61-0.6
				c0.2,0,0.2,0,0.41-0.2c0-0.2,0-0.2,0.2-0.4c0-0.2,0.2-0.4,0.2-0.6c0-0.2,0-0.4,0.2-0.6c0.41-1.21,0,0.4,0.41-0.8
				c0.2-0.8,0-0.6,0.2-1.21c0-0.2,0.2-0.6,0.2-0.8s0-0.2,0.2-0.4l0.2-0.2c0-0.2,0.2-0.8,0.41-0.8c0.2,0,0.82,0.4,0.82,0.4
				c0,0.2,0.2,0.2,0.2,0.4c0.2,0.2,0.61,0.6,0.61,0.6c0,0.2,0,0.2,0.2,0.4c0.2,0.4,0.41,0.6,0.61,1.01c0,0.4,0.2,0.8,0.2,1.01
				c0,0.2,0,0.2,0.2,0.4c0,0.2,0.2,0.2,0.2,0.4l0.2,1.01c0,0.2,0,0.4,0.2,0.6c0,0.2,0.2,0.6,0.2,0.8c0.2,0.2,0.41,0.4,0.61,0.8
				c0.2,0.6,0,0.4,0.61,0.6c2.04,2.01-0.2-0.2,1.02,1.01c0.2,0.2,0.2,0.2,0.41,0.4c0.41,0.2,1.02,0.4,1.43,0.6
				c0.2,0,0.2,0.2,0.41,0.2c1.84,0.2,0.61,0.2,3.68,0.2c0.2,0,0.61,0,0.82,0.2c1.23,0.2,2.25,0.2,3.68,0.2
				c2.04,0.4-0.41-0.2,1.23,0.2c0.2,0,0.41,0,0.61,0.2c1.63,0.4,0,0.2,1.84,0.4c0.82,0.2,0,0,1.02,0.2c0.2,0,0.41,0.2,0.61,0.2
				c0.61,0,2.45,0.2,3.06,0.2l0.82,0.2c0.2,0,0.2,0,0.41,0.2l1.02,0.2c0.41,0,0.61,0,1.02-0.2c0.2,0,0.2-0.2,0.2-0.4
				c0-0.2,0-0.2-0.2-0.4s-0.61-0.4-0.82-0.4c-0.2,0-0.41,0-0.61-0.2c-0.2,0-0.61-0.2-0.82-0.2s-0.2-0.2-0.41-0.2l-0.61-0.2
				c-0.2,0-0.61,0-0.82-0.2c-0.41,0-0.61-0.2-1.02-0.4c-0.2,0-0.41-0.2-0.61-0.2c-0.61,0-1.43,0-2.25-0.2
				c1.43-1.41-0.41,0.4,0.61-0.8c0.61-0.8,0.2-0.2,1.02-0.8c0.61-0.4,0-0.2,0.61-0.4l0.2-0.2c0.41-0.2,1.02-0.2,1.02-0.2
				c0.2,0,0.2-0.2,0.41-0.2c0.41-0.2,1.43-0.2,1.84-0.2c0.2,0,0.41,0,0.61-0.2c0.2,0,0.41,0,0.61-0.2c0.2-0.2-0.41-0.6-0.41-0.6
				c-0.2,0-1.84,0.2-2.25,0.2c-0.2,0-0.41,0.2-0.61,0.2c-0.41,0.2-0.61,0.2-1.02,0.2c-0.2,0-0.2,0-0.41,0.2c-0.2,0-0.41,0-0.61,0.2
				c-0.2,0-0.2,0.2-0.41,0.2c-0.2,0-0.41,0-0.61,0.2c-0.41,0.2-0.41,0.2-1.02,0.2c-0.2,0-0.2,0.2-0.41,0.2
				c-0.2,0.2-0.61,0.2-1.02,0.2c-0.2,0-0.41,0.2-0.61,0.2c-0.61,0.6-0.41,0.6-2.25,0.2c-0.2,0-0.2-0.2-0.2-0.4
				c-0.2-0.2-0.2-0.2-0.41-0.2c0-0.2-0.2-0.2-0.2-0.4c-1.23-1.01-0.41-0.2-1.23-0.6c-0.2,0-0.2-0.2-0.41-0.2
				c-0.61,0.4-1.23,0.4-1.43,0.4c-0.2,0-0.61-0.2-0.82-0.2c-0.41-0.2-0.61-0.4-1.02-0.4c-0.2,0-0.61,0-0.82-0.2
				c-0.2-0.2-0.61-0.2-0.82-0.6c-0.61-1.01-0.2-0.6-1.02-1.01c-0.2-1.01-0.2-1.41,0-2.41c0-0.2,0.2-0.4,0.2-0.6
				c0.41-0.4,0.41-0.6,0.41-0.8c0-0.2,0-0.6,0.2-0.8c0-0.2,0-0.4,0.2-0.6c0.2-1.21,0-0.6,0.2-1.41c0-0.2,0-0.6,0.2-0.8
				c0-0.2,0.2-0.2,0.2-0.2c0.41-1.01-0.2-0.4,0.41-1.01c0.2-0.8,0,0,0.2-1.21c0-0.2,0-0.4,0.2-0.6c0-0.4,0-0.6,0.2-1.01
				c0,0,0,0,0-0.2s0-0.4,0.2-0.6c0-0.2,0-0.4,0.2-0.6c0-0.2,0-0.2,0.2-0.4c0.41-1.21,0,0,0.2-1.01c0-0.4,0-0.6,0.2-1.01
				c0-0.2,0-0.2,0.2-0.4c0.2-0.6,0.2-0.6,0.2-1.21c0-0.2,0-0.4,0.2-0.6c0-0.2,0-0.2,0.2-0.4c0-0.2,0-0.4,0.2-0.6
				c0-0.2,0-0.4,0.2-0.6c0-0.4,0-0.8,0.2-1.41c-0.41,0.4-0.41,0.2-0.41,0s0-0.6,0.2-0.8c0-0.2,0-0.4,0.2-0.6c0-0.6,0-1.21-0.2-1.81
				c0-0.4-0.2-0.6-0.2-1.01c0-0.2,0-0.4-0.2-0.6c-0.2-0.6,0-0.2-0.2-1.01c0-0.4,0-0.8-0.2-1.41c0-0.2-0.2-0.2-0.2-0.4
				c0-0.2,0-0.6-0.2-0.8C56.22,10.36,55.2,10.16,54.79,10.16L54.79,10.16L54.79,10.16L54.79,10.16z"/>
		</g>
	</g>
</g>
</svg>
